<?xml version="1.0" standalone="no"?>
<!DOCTYPE svg PUBLIC "-//W3C//DTD SVG 20010904//EN"
 "http://www.w3.org/TR/2001/REC-SVG-20010904/DTD/svg10.dtd">
<svg version="1.0" xmlns="http://www.w3.org/2000/svg"
 width="256.000000pt" height="256.000000pt" viewBox="0 0 256.000000 256.000000"
 preserveAspectRatio="xMidYMid meet">
<metadata>
Created by potrace 1.11, written by Peter Selinger 2001-2013
</metadata>
<g transform="translate(0.000000,256.000000) scale(0.100000,-0.100000)"
fill="#000000" stroke="none">
<path d="M0 1280 l0 -1280 1280 0 1280 0 0 1280 0 1280 -1280 0 -1280 0 0
-1280z m1770 10 l0 -1190 -160 0 -160 0 0 1190 0 1190 160 0 160 0 0 -1190z
m-640 -10 l0 -955 -162 0 -163 0 0 955 0 955 163 0 162 0 0 -955z m1265 0 l0
-635 -162 0 -163 0 0 635 0 635 163 0 162 0 0 -635z m-1915 0 l0 -309 -160 -3
-160 -3 0 315 0 315 160 -3 160 -3 0 -309z"/>
</g>
</svg>
